# xmcd
#
# Track frame offsets: 
#        150
#        24571
#        45483
#        63534
#        91422
#        110240
#        129690
#        149630
#        161332
#        174513
#        189763
#        202963
#        212839
#
# Disc length: 3007 seconds
#
# Revision: 2
# Processed by: cddbd v1.5.2PL0 Copyright (c) Steve Scherf et al.
# Submitted via: ExactAudioCopyFreeDBPlugin 1.0
#
DISCID=bb0bbd0d
DTITLE=B.B. King - The Life of Riley:  The Soundtrack
DYEAR=2012
DGENRE=Blues
TTITLE0=The Thrill is Gone
TTITLE1=Hummingbird
TTITLE2=Caldonia
TTITLE3=Sweet Sixteen (live in Africa, 1974)
TTITLE4=Hold On (I Feel Our Love is Changing)
TTITLE5=When Love Comes to Town (ft U2)
TTITLE6=Riding With the King (ft Eric Clapton)
TTITLE7=Messy But Good
TTITLE8=Worried Dream
TTITLE9=Precious Lord
TTITLE10=On My Word of Honor
TTITLE11=Tired of Your Jive
TTITLE12=Think It Over
EXTD=
EXTT0=
EXTT1=
EXTT2=
EXTT3=
EXTT4=
EXTT5=
EXTT6=
EXTT7=
EXTT8=
EXTT9=
EXTT10=
EXTT11=
EXTT12=
PLAYORDER=
